<?xml version="1.0" encoding="UTF-8"?>
<!DOCTYPE svg PUBLIC "-//W3C//DTD SVG 1.1//EN" "http://www.w3.org/Graphics/SVG/1.1/DTD/svg11.dtd">
<svg version="1.2" width="306.5mm" height="117.3mm" viewBox="0 0 30650 11730" preserveAspectRatio="xMidYMid" fill-rule="evenodd" clip-path="url(#presentation_clip_path)" stroke-width="28.222" stroke-linejoin="round" xmlns="http://www.w3.org/2000/svg" xmlns:ooo="http://xml.openoffice.org/svg/export" xmlns:xlink="http://www.w3.org/1999/xlink" xml:space="preserve">
 <defs class="ClipPathGroup">
  <clipPath id="presentation_clip_path" clipPathUnits="userSpaceOnUse">
   <rect x="0" y="0" width="30650" height="11730"/>
  </clipPath>
 </defs>
 <defs class="TextShapeIndex">
  <g ooo:slide="id1" ooo:id-list="id3 id4 id5 id6 id7 id8 id9 id10 id11 id12 id13 id14 id15 id16 id17 id18 id19 id20 id21 id22 id23 id24 id25 id26 id27 id28 id29 id30 id31 id32 id33 id34 id35 id36 id37 id38 id39 id40"/>
 </defs>
 <defs class="EmbeddedBulletChars">
  <g id="bullet-char-template(57356)" transform="scale(0.00048828125,-0.00048828125)">
   <path d="M 580,1141 L 1163,571 580,0 -4,571 580,1141 Z"/>
  </g>
  <g id="bullet-char-template(57354)" transform="scale(0.00048828125,-0.00048828125)">
   <path d="M 8,1128 L 1137,1128 1137,0 8,0 8,1128 Z"/>
  </g>
  <g id="bullet-char-template(10146)" transform="scale(0.00048828125,-0.00048828125)">
   <path d="M 174,0 L 602,739 174,1481 1456,739 174,0 Z M 1358,739 L 309,1346 659,739 1358,739 Z"/>
  </g>
  <g id="bullet-char-template(10132)" transform="scale(0.00048828125,-0.00048828125)">
   <path d="M 2015,739 L 1276,0 717,0 1260,543 174,543 174,936 1260,936 717,1481 1274,1481 2015,739 Z"/>
  </g>
  <g id="bullet-char-template(10007)" transform="scale(0.00048828125,-0.00048828125)">
   <path d="M 0,-2 C -7,14 -16,27 -25,37 L 356,567 C 262,823 215,952 215,954 215,979 228,992 255,992 264,992 276,990 289,987 310,991 331,999 354,1012 L 381,999 492,748 772,1049 836,1024 860,1049 C 881,1039 901,1025 922,1006 886,937 835,863 770,784 769,783 710,716 594,584 L 774,223 C 774,196 753,168 711,139 L 727,119 C 717,90 699,76 672,76 641,76 570,178 457,381 L 164,-76 C 142,-110 111,-127 72,-127 30,-127 9,-110 8,-76 1,-67 -2,-52 -2,-32 -2,-23 -1,-13 0,-2 Z"/>
  </g>
  <g id="bullet-char-template(10004)" transform="scale(0.00048828125,-0.00048828125)">
   <path d="M 285,-33 C 182,-33 111,30 74,156 52,228 41,333 41,471 41,549 55,616 82,672 116,743 169,778 240,778 293,778 328,747 346,684 L 369,508 C 377,444 397,411 428,410 L 1163,1116 C 1174,1127 1196,1133 1229,1133 1271,1133 1292,1118 1292,1087 L 1292,965 C 1292,929 1282,901 1262,881 L 442,47 C 390,-6 338,-33 285,-33 Z"/>
  </g>
  <g id="bullet-char-template(9679)" transform="scale(0.00048828125,-0.00048828125)">
   <path d="M 813,0 C 632,0 489,54 383,161 276,268 223,411 223,592 223,773 276,916 383,1023 489,1130 632,1184 813,1184 992,1184 1136,1130 1245,1023 1353,916 1407,772 1407,592 1407,412 1353,268 1245,161 1136,54 992,0 813,0 Z"/>
  </g>
  <g id="bullet-char-template(8226)" transform="scale(0.00048828125,-0.00048828125)">
   <path d="M 346,457 C 273,457 209,483 155,535 101,586 74,649 74,723 74,796 101,859 155,911 209,963 273,989 346,989 419,989 480,963 531,910 582,859 608,796 608,723 608,648 583,586 532,535 482,483 420,457 346,457 Z"/>
  </g>
  <g id="bullet-char-template(8211)" transform="scale(0.00048828125,-0.00048828125)">
   <path d="M -4,459 L 1135,459 1135,606 -4,606 -4,459 Z"/>
  </g>
 </defs>
 <defs class="TextEmbeddedBitmaps"/>
 <g>
  <g id="id2" class="Master_Slide">
   <g id="bg-id2" class="Background"/>
   <g id="bo-id2" class="BackgroundObjects"/>
  </g>
 </g>
 <g class="SlideGroup">
  <g>
   <g id="id1" class="Slide" clip-path="url(#presentation_clip_path)">
    <g class="Page">
     <g class="Group">
      <g class="com.sun.star.drawing.ClosedBezierShape">
       <g id="id3">
        <path fill="rgb(243,89,180)" stroke="none" d="M 1847,3994 C 1869,3967 1893,3936 1918,3902 1947,3860 1971,3838 1991,3838 2013,3838 2027,3843 2032,3855 2039,3865 2044,3899 2049,3955 L 2081,4459 2086,4522 C 2086,4566 2066,4588 2032,4588 2010,4588 1991,4569 1979,4535 1935,4420 1855,4293 1740,4155 1626,4014 1480,3945 1304,3945 1175,3945 1068,3982 981,4057 893,4133 823,4235 774,4364 725,4496 701,4651 701,4834 701,5143 769,5391 905,5574 1044,5759 1212,5849 1416,5849 1638,5849 1840,5715 2025,5450 2047,5418 2069,5401 2088,5401 2122,5401 2139,5418 2139,5452 2139,5523 2054,5637 1886,5791 1716,5947 1504,6024 1248,6024 910,6024 642,5920 448,5710 253,5503 153,5245 153,4941 153,4637 253,4374 450,4150 647,3928 898,3816 1200,3816 1412,3816 1628,3875 1847,3994 Z"/>
        <path fill="none" stroke="rgb(243,89,180)" stroke-width="48" d="M 1847,3994 C 1869,3967 1893,3936 1918,3902 1947,3860 1971,3838 1991,3838 2013,3838 2027,3843 2032,3855 2039,3865 2044,3899 2049,3955 L 2081,4459 2086,4522 C 2086,4566 2066,4588 2032,4588 2010,4588 1991,4569 1979,4535 1935,4420 1855,4293 1740,4155 1626,4014 1480,3945 1304,3945 1175,3945 1068,3982 981,4057 893,4133 823,4235 774,4364 725,4496 701,4651 701,4834 701,5143 769,5391 905,5574 1044,5759 1212,5849 1416,5849 1638,5849 1840,5715 2025,5450 2047,5418 2069,5401 2088,5401 2122,5401 2139,5418 2139,5452 2139,5523 2054,5637 1886,5791 1716,5947 1504,6024 1248,6024 910,6024 642,5920 448,5710 253,5503 153,5245 153,4941 153,4637 253,4374 450,4150 647,3928 898,3816 1200,3816 1412,3816 1628,3875 1847,3994 Z"/>
       </g>
      </g>
      <g class="com.sun.star.drawing.ClosedBezierShape">
       <g id="id4">
        <path fill="rgb(243,89,180)" stroke="none" d="M 4123,6000 C 3855,5986 3437,5978 2867,5978 2670,5978 2509,5986 2385,5998 2353,6000 2332,6000 2319,6000 2278,6000 2256,5983 2256,5951 2256,5937 2263,5927 2273,5920 2285,5915 2310,5908 2353,5903 2419,5893 2470,5871 2507,5842 2541,5813 2565,5769 2580,5710 2594,5652 2604,5501 2607,5260 2609,5019 2609,4732 2609,4401 2609,4269 2599,4172 2580,4113 2560,4052 2534,4009 2497,3982 2461,3953 2409,3938 2344,3936 2297,3933 2276,3916 2276,3884 2276,3850 2302,3836 2353,3836 L 2889,3850 C 2972,3850 3088,3848 3237,3838 3290,3836 3327,3836 3346,3836 3393,3836 3415,3850 3415,3882 3415,3899 3407,3911 3393,3919 3378,3926 3342,3933 3283,3940 3213,3950 3161,3970 3132,3996 3101,4023 3081,4069 3071,4138 3062,4203 3057,4354 3057,4586 L 3057,5569 C 3057,5720 3071,5810 3096,5837 3123,5866 3171,5881 3244,5881 3419,5881 3551,5866 3639,5839 3724,5813 3806,5762 3884,5691 3962,5618 4045,5496 4135,5326 4152,5292 4172,5275 4191,5275 4220,5275 4235,5292 4235,5321 4235,5391 4198,5618 4123,6000 Z"/>
        <path fill="none" stroke="rgb(243,89,180)" stroke-width="48" d="M 4123,6000 C 3855,5986 3437,5978 2867,5978 2670,5978 2509,5986 2385,5998 2353,6000 2332,6000 2319,6000 2278,6000 2256,5983 2256,5951 2256,5937 2263,5927 2273,5920 2285,5915 2310,5908 2353,5903 2419,5893 2470,5871 2507,5842 2541,5813 2565,5769 2580,5710 2594,5652 2604,5501 2607,5260 2609,5019 2609,4732 2609,4401 2609,4269 2599,4172 2580,4113 2560,4052 2534,4009 2497,3982 2461,3953 2409,3938 2344,3936 2297,3933 2276,3916 2276,3884 2276,3850 2302,3836 2353,3836 L 2889,3850 C 2972,3850 3088,3848 3237,3838 3290,3836 3327,3836 3346,3836 3393,3836 3415,3850 3415,3882 3415,3899 3407,3911 3393,3919 3378,3926 3342,3933 3283,3940 3213,3950 3161,3970 3132,3996 3101,4023 3081,4069 3071,4138 3062,4203 3057,4354 3057,4586 L 3057,5569 C 3057,5720 3071,5810 3096,5837 3123,5866 3171,5881 3244,5881 3419,5881 3551,5866 3639,5839 3724,5813 3806,5762 3884,5691 3962,5618 4045,5496 4135,5326 4152,5292 4172,5275 4191,5275 4220,5275 4235,5292 4235,5321 4235,5391 4198,5618 4123,6000 Z"/>
       </g>
      </g>
      <g class="com.sun.star.drawing.ClosedBezierShape">
       <g id="id5">
        <path fill="rgb(243,89,180)" stroke="none" d="M 5233,4354 L 4953,5075 5522,5068 C 5493,4982 5447,4866 5384,4720 5318,4561 5267,4437 5233,4354 Z M 5347,3790 L 5457,3790 C 5598,4099 5800,4581 6058,5243 6177,5547 6260,5730 6306,5796 6350,5859 6423,5898 6520,5912 6552,5917 6569,5932 6569,5954 6569,5988 6547,6005 6506,6005 6484,6005 6425,6000 6330,5993 6218,5983 6124,5978 6048,5978 5973,5978 5875,5983 5756,5993 5668,5998 5608,6003 5581,6003 5532,6003 5508,5986 5508,5954 5508,5932 5525,5917 5559,5915 5690,5903 5756,5852 5756,5759 5756,5715 5737,5635 5698,5521 5661,5406 5620,5299 5576,5206 5505,5204 5449,5204 5410,5204 5194,5204 5026,5204 4904,5206 4812,5460 4765,5628 4765,5710 4765,5769 4790,5815 4836,5847 4882,5881 4931,5900 4984,5905 5026,5910 5045,5925 5045,5954 5045,5983 5023,5998 4980,5998 4963,5998 4919,5995 4846,5990 4751,5983 4680,5978 4639,5978 4554,5978 4473,5986 4395,5995 4376,5998 4361,6000 4347,6000 4308,6000 4288,5983 4288,5951 4288,5927 4301,5912 4327,5905 4391,5886 4442,5864 4478,5837 4515,5810 4554,5759 4597,5684 4639,5608 4690,5484 4751,5316 4882,4941 5082,4432 5347,3790 Z"/>
        <path fill="none" stroke="rgb(243,89,180)" stroke-width="48" d="M 5233,4354 L 4953,5075 5522,5068 C 5493,4982 5447,4866 5384,4720 5318,4561 5267,4437 5233,4354 Z"/>
        <path fill="none" stroke="rgb(243,89,180)" stroke-width="48" d="M 5347,3790 L 5457,3790 C 5598,4099 5800,4581 6058,5243 6177,5547 6260,5730 6306,5796 6350,5859 6423,5898 6520,5912 6552,5917 6569,5932 6569,5954 6569,5988 6547,6005 6506,6005 6484,6005 6425,6000 6330,5993 6218,5983 6124,5978 6048,5978 5973,5978 5875,5983 5756,5993 5668,5998 5608,6003 5581,6003 5532,6003 5508,5986 5508,5954 5508,5932 5525,5917 5559,5915 5690,5903 5756,5852 5756,5759 5756,5715 5737,5635 5698,5521 5661,5406 5620,5299 5576,5206 5505,5204 5449,5204 5410,5204 5194,5204 5026,5204 4904,5206 4812,5460 4765,5628 4765,5710 4765,5769 4790,5815 4836,5847 4882,5881 4931,5900 4984,5905 5026,5910 5045,5925 5045,5954 5045,5983 5023,5998 4980,5998 4963,5998 4919,5995 4846,5990 4751,5983 4680,5978 4639,5978 4554,5978 4473,5986 4395,5995 4376,5998 4361,6000 4347,6000 4308,6000 4288,5983 4288,5951 4288,5927 4301,5912 4327,5905 4391,5886 4442,5864 4478,5837 4515,5810 4554,5759 4597,5684 4639,5608 4690,5484 4751,5316 4882,4941 5082,4432 5347,3790 Z"/>
       </g>
      </g>
      <g class="com.sun.star.drawing.ClosedBezierShape">
       <g id="id6">
        <path fill="rgb(243,89,180)" stroke="none" d="M 7428,3855 C 7455,3923 7506,4028 7581,4174 7657,4318 7732,4464 7805,4615 7881,4763 7964,4919 8056,5085 8129,5214 8173,5292 8183,5314 8450,4710 8655,4223 8793,3855 9051,3855 9290,3850 9509,3836 9531,3836 9546,3836 9555,3836 9599,3836 9621,3853 9621,3887 9621,3916 9604,3931 9570,3931 9446,3931 9365,3975 9329,4057 9290,4140 9271,4345 9271,4666 L 9268,5457 C 9268,5618 9290,5732 9334,5796 9375,5861 9443,5895 9541,5898 9587,5900 9609,5915 9609,5944 9609,5961 9599,5976 9580,5986 L 9127,5983 C 8988,5983 8798,5988 8560,5998 8538,5986 8528,5968 8528,5954 8528,5930 8555,5912 8611,5903 8669,5893 8708,5878 8735,5861 8759,5842 8779,5808 8791,5759 8803,5710 8811,5637 8811,5542 L 8818,4819 C 8818,4449 8818,4237 8818,4181 8526,4861 8346,5294 8275,5484 L 8112,5920 C 8095,5968 8075,5990 8058,5990 8039,5990 8015,5961 7988,5905 7910,5740 7630,5192 7146,4262 7141,4530 7138,4890 7138,5345 7138,5584 7151,5735 7180,5798 7207,5861 7282,5898 7404,5908 7445,5912 7467,5927 7467,5954 7467,5981 7450,5995 7416,5995 7404,5995 7392,5995 7377,5993 7248,5983 7155,5978 7100,5978 6946,5978 6832,5986 6751,5995 6737,5998 6727,5998 6720,5998 6681,5998 6661,5983 6661,5951 6661,5937 6666,5927 6676,5920 6686,5915 6710,5908 6749,5898 6854,5878 6919,5842 6951,5786 6983,5732 7000,5642 7000,5518 L 7007,4595 C 7007,4384 7002,4245 6992,4177 6980,4108 6953,4057 6912,4021 6871,3984 6803,3958 6708,3938 6671,3931 6654,3914 6654,3884 6654,3855 6674,3841 6713,3841 6720,3841 6732,3841 6747,3841 6859,3850 7085,3855 7428,3855 Z"/>
        <path fill="none" stroke="rgb(243,89,180)" stroke-width="48" d="M 7428,3855 C 7455,3923 7506,4028 7581,4174 7657,4318 7732,4464 7805,4615 7881,4763 7964,4919 8056,5085 8129,5214 8173,5292 8183,5314 8450,4710 8655,4223 8793,3855 9051,3855 9290,3850 9509,3836 9531,3836 9546,3836 9555,3836 9599,3836 9621,3853 9621,3887 9621,3916 9604,3931 9570,3931 9446,3931 9365,3975 9329,4057 9290,4140 9271,4345 9271,4666 L 9268,5457 C 9268,5618 9290,5732 9334,5796 9375,5861 9443,5895 9541,5898 9587,5900 9609,5915 9609,5944 9609,5961 9599,5976 9580,5986 L 9127,5983 C 8988,5983 8798,5988 8560,5998 8538,5986 8528,5968 8528,5954 8528,5930 8555,5912 8611,5903 8669,5893 8708,5878 8735,5861 8759,5842 8779,5808 8791,5759 8803,5710 8811,5637 8811,5542 L 8818,4819 C 8818,4449 8818,4237 8818,4181 8526,4861 8346,5294 8275,5484 L 8112,5920 C 8095,5968 8075,5990 8058,5990 8039,5990 8015,5961 7988,5905 7910,5740 7630,5192 7146,4262 7141,4530 7138,4890 7138,5345 7138,5584 7151,5735 7180,5798 7207,5861 7282,5898 7404,5908 7445,5912 7467,5927 7467,5954 7467,5981 7450,5995 7416,5995 7404,5995 7392,5995 7377,5993 7248,5983 7155,5978 7100,5978 6946,5978 6832,5986 6751,5995 6737,5998 6727,5998 6720,5998 6681,5998 6661,5983 6661,5951 6661,5937 6666,5927 6676,5920 6686,5915 6710,5908 6749,5898 6854,5878 6919,5842 6951,5786 6983,5732 7000,5642 7000,5518 L 7007,4595 C 7007,4384 7002,4245 6992,4177 6980,4108 6953,4057 6912,4021 6871,3984 6803,3958 6708,3938 6671,3931 6654,3914 6654,3884 6654,3855 6674,3841 6713,3841 6720,3841 6732,3841 6747,3841 6859,3850 7085,3855 7428,3855 Z"/>
       </g>
      </g>
      <g class="com.sun.star.drawing.ClosedBezierShape">
       <g id="id7">
        <path fill="rgb(243,89,180)" stroke="none" d="M 10509,4866 C 10573,4873 10619,4875 10653,4875 10823,4875 10952,4824 11038,4720 11120,4617 11164,4493 11164,4352 11164,4216 11125,4113 11047,4045 10969,3979 10872,3945 10760,3945 10699,3945 10616,3953 10509,3972 L 10509,4866 Z M 10509,4982 L 10509,5596 C 10509,5725 10526,5808 10563,5847 10599,5883 10655,5905 10731,5908 10780,5908 10811,5912 10823,5917 10836,5925 10843,5939 10843,5959 10843,5986 10811,6000 10750,6000 10721,6000 10655,5998 10553,5990 10417,5983 10320,5978 10266,5978 10205,5978 10122,5983 10015,5990 9930,5998 9867,6000 9825,6000 9791,6000 9774,5986 9774,5954 9774,5932 9804,5915 9862,5908 9923,5898 9964,5883 9989,5861 10013,5839 10032,5800 10042,5744 10054,5688 10062,5540 10062,5301 10062,5060 10064,4849 10064,4666 L 10062,4157 C 10062,4089 10044,4033 10010,3992 9979,3950 9920,3931 9835,3931 9799,3931 9779,3916 9779,3884 9779,3850 9813,3831 9879,3831 L 9920,3833 C 9981,3836 10052,3838 10132,3838 L 10789,3828 C 11123,3828 11356,3880 11488,3979 11619,4079 11685,4218 11685,4396 11685,4573 11614,4717 11473,4827 11332,4934 11101,4987 10780,4987 10707,4987 10616,4985 10509,4982 Z"/>
        <path fill="none" stroke="rgb(243,89,180)" stroke-width="48" d="M 10509,4866 C 10573,4873 10619,4875 10653,4875 10823,4875 10952,4824 11038,4720 11120,4617 11164,4493 11164,4352 11164,4216 11125,4113 11047,4045 10969,3979 10872,3945 10760,3945 10699,3945 10616,3953 10509,3972 L 10509,4866 Z"/>
        <path fill="none" stroke="rgb(243,89,180)" stroke-width="48" d="M 10509,4982 L 10509,5596 C 10509,5725 10526,5808 10563,5847 10599,5883 10655,5905 10731,5908 10780,5908 10811,5912 10823,5917 10836,5925 10843,5939 10843,5959 10843,5986 10811,6000 10750,6000 10721,6000 10655,5998 10553,5990 10417,5983 10320,5978 10266,5978 10205,5978 10122,5983 10015,5990 9930,5998 9867,6000 9825,6000 9791,6000 9774,5986 9774,5954 9774,5932 9804,5915 9862,5908 9923,5898 9964,5883 9989,5861 10013,5839 10032,5800 10042,5744 10054,5688 10062,5540 10062,5301 10062,5060 10064,4849 10064,4666 L 10062,4157 C 10062,4089 10044,4033 10010,3992 9979,3950 9920,3931 9835,3931 9799,3931 9779,3916 9779,3884 9779,3850 9813,3831 9879,3831 L 9920,3833 C 9981,3836 10052,3838 10132,3838 L 10789,3828 C 11123,3828 11356,3880 11488,3979 11619,4079 11685,4218 11685,4396 11685,4573 11614,4717 11473,4827 11332,4934 11101,4987 10780,4987 10707,4987 10616,4985 10509,4982 Z"/>
       </g>
      </g>
      <g class="com.sun.star.drawing.ClosedBezierShape">
       <g id="id8">
        <path fill="rgb(255,255,255)" stroke="none" d="M 1847,3994 C 1869,3967 1893,3936 1918,3902 1947,3860 1971,3838 1991,3838 2013,3838 2027,3843 2032,3855 2039,3865 2044,3899 2049,3955 L 2081,4459 2086,4522 C 2086,4566 2066,4588 2032,4588 2010,4588 1991,4569 1979,4535 1935,4420 1855,4293 1740,4155 1626,4014 1480,3945 1304,3945 1175,3945 1068,3982 981,4057 893,4133 823,4235 774,4364 725,4496 701,4651 701,4834 701,5143 769,5391 905,5574 1044,5759 1212,5849 1416,5849 1638,5849 1840,5715 2025,5450 2047,5418 2069,5401 2088,5401 2122,5401 2139,5418 2139,5452 2139,5523 2054,5637 1886,5791 1716,5947 1504,6024 1248,6024 910,6024 642,5920 448,5710 253,5503 153,5245 153,4941 153,4637 253,4374 450,4150 647,3928 898,3816 1200,3816 1412,3816 1628,3875 1847,3994 Z"/>
       </g>
      </g>
      <g class="com.sun.star.drawing.ClosedBezierShape">
       <g id="id9">
        <path fill="rgb(255,255,255)" stroke="none" d="M 4123,6000 C 3855,5986 3437,5978 2867,5978 2670,5978 2509,5986 2385,5998 2353,6000 2332,6000 2319,6000 2278,6000 2256,5983 2256,5951 2256,5937 2263,5927 2273,5920 2285,5915 2310,5908 2353,5903 2419,5893 2470,5871 2507,5842 2541,5813 2565,5769 2580,5710 2594,5652 2604,5501 2607,5260 2609,5019 2609,4732 2609,4401 2609,4269 2599,4172 2580,4113 2560,4052 2534,4009 2497,3982 2461,3953 2409,3938 2344,3936 2297,3933 2276,3916 2276,3884 2276,3850 2302,3836 2353,3836 L 2889,3850 C 2972,3850 3088,3848 3237,3838 3290,3836 3327,3836 3346,3836 3393,3836 3415,3850 3415,3882 3415,3899 3407,3911 3393,3919 3378,3926 3342,3933 3283,3940 3213,3950 3161,3970 3132,3996 3101,4023 3081,4069 3071,4138 3062,4203 3057,4354 3057,4586 L 3057,5569 C 3057,5720 3071,5810 3096,5837 3123,5866 3171,5881 3244,5881 3419,5881 3551,5866 3639,5839 3724,5813 3806,5762 3884,5691 3962,5618 4045,5496 4135,5326 4152,5292 4172,5275 4191,5275 4220,5275 4235,5292 4235,5321 4235,5391 4198,5618 4123,6000 Z"/>
       </g>
      </g>
      <g class="com.sun.star.drawing.ClosedBezierShape">
       <g id="id10">
        <path fill="rgb(255,255,255)" stroke="none" d="M 5233,4354 L 4953,5075 5522,5068 C 5493,4982 5447,4866 5384,4720 5318,4561 5267,4437 5233,4354 Z M 5347,3790 L 5457,3790 C 5598,4099 5800,4581 6058,5243 6177,5547 6260,5730 6306,5796 6350,5859 6423,5898 6520,5912 6552,5917 6569,5932 6569,5954 6569,5988 6547,6005 6506,6005 6484,6005 6425,6000 6330,5993 6218,5983 6124,5978 6048,5978 5973,5978 5875,5983 5756,5993 5668,5998 5608,6003 5581,6003 5532,6003 5508,5986 5508,5954 5508,5932 5525,5917 5559,5915 5690,5903 5756,5852 5756,5759 5756,5715 5737,5635 5698,5521 5661,5406 5620,5299 5576,5206 5505,5204 5449,5204 5410,5204 5194,5204 5026,5204 4904,5206 4812,5460 4765,5628 4765,5710 4765,5769 4790,5815 4836,5847 4882,5881 4931,5900 4984,5905 5026,5910 5045,5925 5045,5954 5045,5983 5023,5998 4980,5998 4963,5998 4919,5995 4846,5990 4751,5983 4680,5978 4639,5978 4554,5978 4473,5986 4395,5995 4376,5998 4361,6000 4347,6000 4308,6000 4288,5983 4288,5951 4288,5927 4301,5912 4327,5905 4391,5886 4442,5864 4478,5837 4515,5810 4554,5759 4597,5684 4639,5608 4690,5484 4751,5316 4882,4941 5082,4432 5347,3790 Z"/>
       </g>
      </g>
      <g class="com.sun.star.drawing.ClosedBezierShape">
       <g id="id11">
        <path fill="rgb(255,255,255)" stroke="none" d="M 7428,3855 C 7455,3923 7506,4028 7581,4174 7657,4318 7732,4464 7805,4615 7881,4763 7964,4919 8056,5085 8129,5214 8173,5292 8183,5314 8450,4710 8655,4223 8793,3855 9051,3855 9290,3850 9509,3836 9531,3836 9546,3836 9555,3836 9599,3836 9621,3853 9621,3887 9621,3916 9604,3931 9570,3931 9446,3931 9365,3975 9329,4057 9290,4140 9271,4345 9271,4666 L 9268,5457 C 9268,5618 9290,5732 9334,5796 9375,5861 9443,5895 9541,5898 9587,5900 9609,5915 9609,5944 9609,5961 9599,5976 9580,5986 L 9127,5983 C 8988,5983 8798,5988 8560,5998 8538,5986 8528,5968 8528,5954 8528,5930 8555,5912 8611,5903 8669,5893 8708,5878 8735,5861 8759,5842 8779,5808 8791,5759 8803,5710 8811,5637 8811,5542 L 8818,4819 C 8818,4449 8818,4237 8818,4181 8526,4861 8346,5294 8275,5484 L 8112,5920 C 8095,5968 8075,5990 8058,5990 8039,5990 8015,5961 7988,5905 7910,5740 7630,5192 7146,4262 7141,4530 7138,4890 7138,5345 7138,5584 7151,5735 7180,5798 7207,5861 7282,5898 7404,5908 7445,5912 7467,5927 7467,5954 7467,5981 7450,5995 7416,5995 7404,5995 7392,5995 7377,5993 7248,5983 7155,5978 7100,5978 6946,5978 6832,5986 6751,5995 6737,5998 6727,5998 6720,5998 6681,5998 6661,5983 6661,5951 6661,5937 6666,5927 6676,5920 6686,5915 6710,5908 6749,5898 6854,5878 6919,5842 6951,5786 6983,5732 7000,5642 7000,5518 L 7007,4595 C 7007,4384 7002,4245 6992,4177 6980,4108 6953,4057 6912,4021 6871,3984 6803,3958 6708,3938 6671,3931 6654,3914 6654,3884 6654,3855 6674,3841 6713,3841 6720,3841 6732,3841 6747,3841 6859,3850 7085,3855 7428,3855 Z"/>
       </g>
      </g>
      <g class="com.sun.star.drawing.ClosedBezierShape">
       <g id="id12">
        <path fill="rgb(255,255,255)" stroke="none" d="M 10509,4866 C 10573,4873 10619,4875 10653,4875 10823,4875 10952,4824 11038,4720 11120,4617 11164,4493 11164,4352 11164,4216 11125,4113 11047,4045 10969,3979 10872,3945 10760,3945 10699,3945 10616,3953 10509,3972 L 10509,4866 Z M 10509,4982 L 10509,5596 C 10509,5725 10526,5808 10563,5847 10599,5883 10655,5905 10731,5908 10780,5908 10811,5912 10823,5917 10836,5925 10843,5939 10843,5959 10843,5986 10811,6000 10750,6000 10721,6000 10655,5998 10553,5990 10417,5983 10320,5978 10266,5978 10205,5978 10122,5983 10015,5990 9930,5998 9867,6000 9825,6000 9791,6000 9774,5986 9774,5954 9774,5932 9804,5915 9862,5908 9923,5898 9964,5883 9989,5861 10013,5839 10032,5800 10042,5744 10054,5688 10062,5540 10062,5301 10062,5060 10064,4849 10064,4666 L 10062,4157 C 10062,4089 10044,4033 10010,3992 9979,3950 9920,3931 9835,3931 9799,3931 9779,3916 9779,3884 9779,3850 9813,3831 9879,3831 L 9920,3833 C 9981,3836 10052,3838 10132,3838 L 10789,3828 C 11123,3828 11356,3880 11488,3979 11619,4079 11685,4218 11685,4396 11685,4573 11614,4717 11473,4827 11332,4934 11101,4987 10780,4987 10707,4987 10616,4985 10509,4982 Z"/>
       </g>
      </g>
      <g class="com.sun.star.drawing.PolyPolygonShape">
       <g id="id13">
        <path fill="rgb(153,214,75)" stroke="none" d="M 3490,10090 L 3295,8070 3101,10090 3490,10090 Z M 3037,10845 L 2955,11626 2205,11626 2840,7084 3753,7084 4388,11626 3636,11626 3556,10845 3037,10845 Z"/>
       </g>
      </g>
      <g class="com.sun.star.drawing.PolyPolygonShape">
       <g id="id14">
        <path fill="rgb(153,214,75)" stroke="none" d="M 12812,10090 L 12617,8070 12425,10090 12812,10090 Z M 12362,10845 L 12276,11626 11529,11626 12162,7084 13077,7084 13710,11626 12960,11626 12878,10845 12362,10845 Z"/>
       </g>
      </g>
      <g class="com.sun.star.drawing.ClosedBezierShape">
       <g id="id15">
        <path fill="rgb(153,214,75)" stroke="none" d="M 5384,8944 L 5603,8944 C 5754,8944 5883,8761 5883,8364 5883,8016 5795,7799 5612,7799 L 5384,7799 5384,8944 Z M 6569,10219 L 6574,10626 C 6574,11081 6581,11273 6610,11471 L 6632,11626 5856,11626 C 5831,11514 5829,11006 5829,10728 L 5829,10292 C 5834,10078 5805,9903 5805,9903 5756,9691 5525,9691 5525,9691 L 5384,9691 5384,11626 4605,11626 4605,7074 5807,7074 C 6377,7127 6596,7544 6596,8191 6596,8481 6584,8756 6513,8948 6447,9119 6369,9209 6206,9280 6206,9280 6476,9401 6532,9710 6532,9710 6562,9932 6562,10000 L 6569,10219 Z"/>
       </g>
      </g>
      <g class="com.sun.star.drawing.ClosedBezierShape">
       <g id="id16">
        <path fill="rgb(153,214,75)" stroke="none" d="M 21644,8944 L 21866,8944 C 22017,8944 22143,8761 22143,8364 22143,8016 22056,7799 21876,7799 L 21644,7799 21644,8944 Z M 22832,10219 L 22837,10626 C 22837,11081 22844,11273 22873,11471 L 22895,11626 22119,11626 C 22092,11514 22092,11006 22092,10728 L 22092,10292 C 22097,10078 22068,9903 22068,9903 22019,9691 21786,9691 21786,9691 L 21644,9691 21644,11626 20868,11626 20868,7074 22070,7074 C 22640,7127 22859,7544 22859,8191 22859,8481 22847,8756 22774,8948 22710,9119 22632,9209 22469,9280 22469,9280 22740,9401 22796,9710 22796,9710 22825,9932 22825,10000 L 22832,10219 Z"/>
       </g>
      </g>
      <g class="com.sun.star.drawing.ClosedBezierShape">
       <g id="id17">
        <path fill="rgb(153,214,75)" stroke="none" d="M 14713,9002 L 14932,9002 C 15153,8990 15182,8761 15182,8364 15182,8016 15146,7792 14944,7799 L 14713,7799 14713,9002 Z M 14708,9701 L 14713,11627 13936,11627 13936,7074 15063,7074 C 15063,7074 15781,7045 15896,7695 15896,7695 16010,8384 15934,8897 15934,8897 15903,9428 15443,9647 15443,9647 15321,9701 15139,9701 L 14708,9701 Z"/>
       </g>
      </g>
      <g class="com.sun.star.drawing.PolyPolygonShape">
       <g id="id18">
        <path fill="rgb(153,214,75)" stroke="none" d="M 17614,11624 L 16862,11624 16862,7860 16173,7860 16173,7042 18305,7042 18305,7860 17614,7860 17614,11624 Z"/>
       </g>
      </g>
      <g class="com.sun.star.drawing.ClosedBezierShape">
       <g id="id19">
        <path fill="rgb(153,214,75)" stroke="none" d="M 1278,9745 L 1278,10765 C 1278,10896 1171,11003 1039,11003 905,11003 798,10896 798,10765 L 798,8033 C 798,7899 905,7792 1039,7792 1171,7792 1278,7899 1278,8033 L 1278,8707 2035,8707 2035,7996 C 2035,7471 1592,7042 1044,7042 496,7042 51,7471 51,7996 L 51,10723 C 51,11252 496,11678 1044,11678 1592,11678 2035,11252 2035,10723 L 2035,9745 1278,9745 Z"/>
       </g>
      </g>
      <g class="com.sun.star.drawing.ClosedBezierShape">
       <g id="id20">
        <path fill="rgb(153,214,75)" stroke="none" d="M 8146,8678 L 8146,9745 8146,10453 C 8139,10787 7854,10765 7854,10765 L 7664,10765 7664,7914 7925,7914 C 7925,7914 8139,7945 8146,8182 L 8146,8678 Z M 7939,7074 L 6917,7066 6917,7996 6917,10723 6917,11624 7910,11619 C 8458,11619 8901,11252 8901,10723 L 8901,9745 8901,8678 8901,7996 C 8913,7402 8548,7064 7939,7074 Z"/>
       </g>
      </g>
      <g class="com.sun.star.drawing.ClosedBezierShape">
       <g id="id21">
        <path fill="rgb(153,214,75)" stroke="none" d="M 10614,9713 L 10614,10735 C 10614,10867 10507,10974 10373,10974 10242,10974 10135,10867 10135,10735 L 10135,8004 C 10135,7870 10242,7763 10373,7763 10507,7763 10614,7870 10614,8004 L 10614,8678 11371,8678 11371,7967 C 11371,7439 10926,7013 10378,7013 9830,7013 9387,7439 9387,7967 L 9387,10694 C 9387,11220 9830,11648 10378,11648 10926,11648 11371,11220 11371,10694 L 11371,9713 10614,9713 Z"/>
       </g>
      </g>
      <g class="com.sun.star.drawing.ClosedBezierShape">
       <g id="id22">
        <path fill="rgb(153,214,75)" stroke="none" d="M 19792,10704 C 19792,10867 19685,10974 19554,10974 19420,10974 19313,10867 19313,10735 L 19313,8004 C 19313,7870 19420,7763 19554,7763 19685,7763 19792,7899 19792,8004 L 19792,10704 Z M 19559,7042 C 19011,7042 18565,7471 18565,7996 L 18565,10723 C 18565,11252 19011,11678 19559,11678 20106,11678 20549,11252 20549,10723 L 20549,7996 C 20549,7471 20106,7042 19559,7042 Z"/>
       </g>
      </g>
      <g class="com.sun.star.drawing.ClosedBezierShape">
       <g id="id23">
        <path fill="rgb(239,45,119)" stroke="none" d="M 1509,10667 L 1222,10667 1307,10407 1638,10407 1935,9068 1665,9068 1528,9681 C 1280,10804 387,10713 387,10713 L 467,10426 C 859,10358 971,9856 971,9856 L 1146,9068 966,9068 939,9189 786,9189 908,8647 1239,8647 1341,8191 2130,8191 2086,8386 1818,8386 1760,8647 2782,8647 2743,8822 2509,8822 2259,9944 C 2259,9944 2166,10368 2095,10438 2095,10438 1981,10665 1713,10665 L 1509,10667 Z"/>
       </g>
      </g>
      <g class="com.sun.star.drawing.PolyPolygonShape">
       <g id="id24">
        <path fill="rgb(239,45,119)" stroke="none" d="M 3770,9681 L 3875,9204 3906,9068 3753,9068 3726,9189 2611,9189 2463,9856 2616,9856 2655,9681 3770,9681 Z"/>
        <path fill="none" stroke="rgb(239,45,119)" stroke-width="29" d="M 3770,9681 L 3875,9204 3906,9068 3753,9068 3726,9189 2611,9189 2463,9856 2616,9856 2655,9681 3770,9681 Z"/>
       </g>
      </g>
      <g class="com.sun.star.drawing.PolyPolygonShape">
       <g id="id25">
        <path fill="rgb(239,45,119)" stroke="none" d="M 5848,8508 L 5939,8104 5695,8104 5605,8508 5848,8508 Z M 5510,8508 L 5600,8104 5354,8104 5264,8508 5510,8508 Z M 3736,10713 L 4254,8386 4057,8386 4101,8191 4846,8191 4624,9189 5423,9189 5449,9068 5603,9068 5466,9681 4515,9681 4284,10713 3736,10713 Z"/>
       </g>
      </g>
      <g class="com.sun.star.drawing.ClosedBezierShape">
       <g id="id26">
        <path fill="rgb(239,45,119)" stroke="none" d="M 8173,10154 L 8202,9971 8316,9961 8406,9577 8151,9577 7878,10713 7450,10713 7723,9577 7603,9577 7579,9681 7426,9681 7535,9216 7808,9216 7881,8909 8492,8909 8453,9068 8270,9068 8236,9216 9100,9216 9056,9399 8876,9399 C 8876,9399 8769,10154 8173,10154 Z"/>
       </g>
      </g>
      <g class="com.sun.star.drawing.ClosedBezierShape">
       <g id="id27">
        <path fill="rgb(239,45,119)" stroke="none" d="M 11291,9277 L 11008,9092 C 11035,9068 11059,8985 11059,8985 L 11103,8776 11410,8776 11291,9277 Z M 11210,8323 L 11242,8191 10653,8191 10607,8384 10767,8386 10643,8909 C 10643,8909 10573,9209 10351,9209 L 10288,9440 10614,9440 10806,9353 C 10806,9353 10994,9409 10972,9856 L 11106,9856 C 11106,9856 11076,10241 10651,10358 10651,10358 10356,10419 10100,10399 L 10030,10713 10553,10713 C 10855,10706 11079,10582 11072,10587 11339,10438 11488,10227 11488,10227 11646,10027 11729,9681 11729,9681 L 12009,8508 12250,8508 12293,8323 11210,8323 Z"/>
       </g>
      </g>
      <g class="com.sun.star.drawing.PolyPolygonShape">
       <g id="id28">
        <path fill="rgb(239,45,119)" stroke="none" d="M 7192,9944 L 7350,9277 7197,9277 7151,9472 6859,9472 6902,9068 7399,9068 7550,8437 7396,8437 7345,8647 6949,8647 6997,8191 6316,8191 6270,8386 6437,8386 6408,8647 5883,8647 5754,9189 5907,9189 5936,9068 6362,9068 6318,9472 5685,9472 5532,10119 5685,10119 5727,9944 6267,9944 6184,10713 6725,10713 6807,9944 7192,9944 Z"/>
       </g>
      </g>
      <g class="com.sun.star.drawing.ClosedBezierShape">
       <g id="id29">
        <path fill="rgb(239,45,119)" stroke="none" d="M 10115,9796 C 10186,9796 10242,9859 10242,9937 10242,10015 10186,10078 10115,10078 10044,10078 9989,10015 9989,9937 9989,9859 10044,9796 10115,9796 Z M 10483,8384 L 10529,8191 8922,8191 8774,8822 8927,8822 8969,8647 9709,8647 9487,9577 C 9487,9577 9300,10453 8312,10390 L 8234,10713 C 8234,10713 9166,10816 9660,10280 9660,10280 9735,10207 9830,10054 9874,10183 9984,10273 10115,10273 10283,10273 10419,10122 10419,9937 10419,9749 10283,9598 10115,9598 10083,9598 10054,9606 10027,9615 L 10380,8386 10483,8384 Z"/>
       </g>
      </g>
      <g class="com.sun.star.drawing.PolyPolygonShape">
       <g id="id30">
        <path fill="rgb(239,45,119)" stroke="none" d="M 11992,9856 L 12018,9752 13111,9752 13301,9029 13148,9029 13099,9216 12006,9216 11838,9856 11992,9856 Z"/>
        <path fill="none" stroke="rgb(239,45,119)" stroke-width="29" d="M 11992,9856 L 12018,9752 13111,9752 13301,9029 13148,9029 13099,9216 12006,9216 11838,9856 11992,9856 Z"/>
       </g>
      </g>
      <g class="com.sun.star.drawing.ClosedBezierShape">
       <g id="id31">
        <path fill="rgb(255,255,255)" stroke="none" d="M 22110,1703 C 21910,1343 21455,1216 21098,1416 20401,1805 19630,2107 18739,2341 18440,1489 18194,853 18172,792 17989,308 17503,130 17118,279 16824,393 16644,763 16644,1063 16644,1150 16658,1243 16692,1330 16697,1345 16911,1898 17186,2667 15225,3032 13487,3113 13458,3113 13049,3130 12727,3478 12747,3889 12764,4301 13110,4620 13521,4600 13650,4595 15543,4510 17671,4091 17807,4512 17938,4941 18050,5345 16984,5245 15480,5391 14546,6760 14424,6915 13964,7573 13964,8510 13964,8639 13974,8775 13993,8917 14112,9946 15110,11246 16663,11573 16885,11624 19518,12164 21088,10236 21297,9980 21351,9501 21154,9133 20961,8770 20380,8880 20102,9184 18910,10501 17023,10100 16943,10080 16940,10080 16933,10078 16931,10078 15979,9878 15509,9106 15470,8739 15468,8729 15468,8719 15466,8712 15380,8120 15709,7687 15724,7670 15736,7655 15753,7631 15763,7616 16724,6368 18746,7018 18766,7025 19017,7110 19326,7035 19525,6862 19725,6689 19808,6397 19786,6134 19735,5547 19469,4627 19216,3755 20182,3495 21039,3156 21825,2716 22183,2514 22312,2061 22110,1703 Z"/>
       </g>
      </g>
      <g class="com.sun.star.drawing.ClosedBezierShape">
       <g id="id32">
        <path fill="rgb(255,255,255)" stroke="none" d="M 16623,11541 C 16618,11536 16614,11536 16606,11531 16609,11531 16623,11541 16623,11541 Z"/>
       </g>
      </g>
      <g class="com.sun.star.drawing.ClosedBezierShape">
       <g id="id33">
        <path fill="rgb(255,255,255)" stroke="none" d="M 24850,1172 C 24826,1187 24237,1525 23429,2190 22867,2643 22375,3059 21599,3919 21540,3979 20961,4612 20625,5350 20618,5370 20608,5392 20601,5411 20141,6723 20742,7790 21275,8413 21270,8408 21504,8676 21499,8671 21535,8715 22003,9272 22947,10168 L 23232,10436 C 23597,10777 23904,11032 24174,11176 24536,11368 24972,11298 25208,10962 25298,10833 25337,10648 25335,10502 25330,10314 25254,10056 25048,9910 24841,9764 24585,9494 24276,9226 L 24076,9051 C 23261,8345 22480,7385 22472,7376 22468,7371 22465,7366 22460,7361 22049,6879 21803,6548 21803,6283 21803,6154 21881,5978 21956,5852 22214,5384 22689,4931 22694,4927 23407,4194 23736,3877 24332,3429 24970,2952 25600,2507 25605,2504 25846,2368 26023,2076 26023,1818 26023,1693 25992,1567 25924,1450 25719,1092 25208,970 24850,1172 Z"/>
       </g>
      </g>
      <g class="com.sun.star.drawing.ClosedBezierShape">
       <g id="id34">
        <path fill="rgb(255,255,255)" stroke="none" d="M 25166,3810 C 25154,3854 25045,4263 24886,5256 24884,5266 24879,5298 24879,5310 L 24862,5444 C 24748,6400 24541,6987 25244,7404 25327,7452 25512,7537 25607,7554 26115,7657 26517,7192 27091,6931 27354,6812 28009,6454 28503,6600 28737,6668 28902,6783 28931,7226 28953,7304 29043,7343 29043,7416 29043,7525 29058,7603 29024,7771 28907,8114 28766,8411 28449,8799 28116,9205 27641,9517 27386,9685 26945,9974 26697,10057 26454,10138 L 26437,10142 C 26125,10247 25928,10537 25928,10851 25928,10929 25940,11007 25967,11085 26096,11477 26639,11737 27031,11608 L 27045,11603 C 27332,11508 27666,11362 28269,10963 28566,10768 29160,10323 29637,9743 30139,9132 30326,8650 30472,8214 30482,8185 30489,8153 30496,8124 L 30504,8080 C 30577,7718 30684,7228 30492,6624 30482,6595 30470,6566 30457,6539 30197,5906 29730,5402 29007,5137 28058,4794 26875,5324 26339,5648 26339,5638 26351,5531 26356,5480 26502,4575 26631,4309 26661,4175 26692,4039 26685,3942 26680,3886 26646,3579 26417,3330 26084,3240 25689,3133 25273,3413 25166,3810 Z"/>
       </g>
      </g>
      <g class="com.sun.star.drawing.ClosedBezierShape">
       <g id="id35">
        <path fill="rgb(255,255,255)" stroke="none" d="M 29555,3581 L 30207,3581 C 30178,3084 29944,2480 29355,1903 28525,1090 27116,1344 27116,1344 27116,1344 26967,2624 27822,3462 28454,4082 28919,4309 29555,4326 L 29555,3581 Z"/>
       </g>
      </g>
      <g class="com.sun.star.drawing.ClosedBezierShape">
       <g id="id36">
        <path fill="rgb(239,45,119)" stroke="none" d="M 21932,1435 C 21730,1077 21277,948 20920,1150 20224,1539 19362,1841 18471,2075 18169,1220 17926,587 17902,527 17753,142 17322,-48 16940,101 16643,215 16463,497 16463,794 16463,884 16480,977 16514,1065 16519,1077 16733,1632 17006,2401 15047,2766 13309,2847 13280,2847 12868,2864 12550,3212 12567,3623 12584,4032 12932,4351 13343,4334 13472,4329 15363,4244 17490,3825 17627,4247 17758,4675 17870,5079 16806,4977 15300,5125 14368,6491 14246,6650 13784,7304 13784,8244 13784,8373 13793,8510 13813,8651 13934,9681 14891,10944 16444,11270 16665,11319 19277,11850 21027,9919 21304,9615 21280,9143 20976,8867 20671,8590 20199,8614 19924,8919 18729,10236 16843,9832 16763,9814 16760,9814 16753,9812 16750,9812 15801,9612 15332,8841 15290,8473 15290,8463 15288,8454 15288,8444 15203,7855 15531,7421 15546,7404 15555,7390 15572,7365 15585,7351 16534,6024 18598,6730 18620,6737 18870,6822 19148,6769 19347,6596 19547,6423 19642,6158 19593,5897 19469,5216 19218,4337 18946,3489 19915,3229 20859,2888 21645,2450 22005,2248 22132,1795 21932,1435 Z"/>
       </g>
      </g>
      <g class="com.sun.star.drawing.ClosedBezierShape">
       <g id="id37">
        <path fill="rgb(239,45,119)" stroke="none" d="M 16446,11273 C 16438,11269 16433,11269 16429,11264 16431,11264 16443,11273 16446,11273 Z"/>
       </g>
      </g>
      <g class="com.sun.star.drawing.ClosedBezierShape">
       <g id="id38">
        <path fill="rgb(239,45,119)" stroke="none" d="M 24672,934 C 24648,948 24056,1289 23251,1951 22688,2404 22194,2823 21418,3680 21362,3741 20783,4374 20447,5112 20437,5133 20430,5153 20422,5172 19962,6485 20617,7466 21148,8089 21145,8084 21140,8079 21136,8074 21172,8118 22007,9146 22922,9939 L 23119,10110 C 23448,10397 23730,10643 24003,10833 24341,11069 24806,10989 25042,10650 25132,10521 25176,10373 25176,10224 25176,9990 25064,9759 24857,9613 24650,9467 24407,9255 24098,8987 L 23896,8812 C 23083,8109 22301,7147 22294,7137 22289,7132 22284,7127 22280,7123 21871,6640 21751,6309 21751,6046 21751,5915 21783,5803 21817,5696 22060,5182 22511,4693 22516,4688 23229,3899 23660,3534 24190,3105 24896,2526 25407,2229 25412,2227 25650,2090 25784,1837 25784,1581 25784,1455 25753,1328 25687,1211 25483,853 25027,732 24672,934 Z"/>
       </g>
      </g>
      <g class="com.sun.star.drawing.ClosedBezierShape">
       <g id="id39">
        <path fill="rgb(239,45,119)" stroke="none" d="M 24987,3571 C 24977,3615 24872,4258 24785,4725 24782,4737 24709,5185 24699,5356 24690,5504 24412,6680 25023,7172 25099,7233 25220,7294 25313,7323 25505,7384 25741,7340 25890,7282 26109,7191 26491,6897 26914,6692 27172,6568 27905,6213 28392,6371 28637,6451 28815,6583 28888,6851 28908,6929 28937,7058 28937,7128 28937,7238 28951,7357 28900,7586 28832,7824 28664,8209 28345,8596 27990,9030 27700,9229 27348,9461 26907,9753 26518,9818 26277,9899 L 26260,9906 C 25948,10008 25751,10300 25751,10612 25751,10690 25763,10768 25790,10848 25919,11238 26340,11447 26729,11318 L 26746,11313 C 27031,11218 27423,11087 28027,10690 28326,10493 28944,10086 29421,9504 29923,8896 30127,8406 30273,7968 30283,7939 30290,7910 30295,7878 L 30305,7834 C 30378,7474 30468,7021 30275,6417 30266,6388 30254,6361 30241,6335 29932,5663 29419,5205 28757,5010 27791,4728 26647,5120 26109,5446 26111,5436 26140,5261 26153,5188 26299,4282 26423,3963 26425,3961 26442,3895 26449,3832 26449,3768 26449,3440 26230,3138 25899,3048 25503,2941 25111,3121 24987,3571 Z"/>
       </g>
      </g>
      <g class="com.sun.star.drawing.ClosedBezierShape">
       <g id="id40">
        <path fill="rgb(239,45,119)" stroke="none" d="M 29287,3312 L 30029,3312 C 30000,2845 29708,2248 29160,1744 28306,958 27045,1172 27045,1172 27045,1172 27018,2533 27700,3264 28182,3782 28817,4043 29287,4057 L 29287,3312 Z"/>
       </g>
      </g>
     </g>
    </g>
   </g>
  </g>
 </g>
</svg>